<svg xmlns="http://www.w3.org/2000/svg" viewBox="0 0 478.01 478"><defs><style>.cls-1{fill:#7a63ff;}</style></defs><g id="Layer_2" data-name="Layer 2"><g id="Layer_1-2" data-name="Layer 1"><path class="cls-1" d="M239,0C107,0,0,107,0,239A239,239,0,0,0,70,408c93.34,93.34,244.67,93.34,338,0s93.34-244.66,0-338A237.44,237.44,0,0,0,239,0ZM179.26,289.82,163,307.43l-61.86-57.31a12,12,0,0,1-.65-17c.21-.22.42-.44.65-.65L163,175.21l16.31,17.6-52.36,48.5Zm43.66,73.43-23.4-5.34,55.57-243.16,23.4,5.34Zm154-113.13-61.86,57.31-16.31-17.61,52.35-48.5-52.35-48.5,16.31-17.61,61.86,57.31a12,12,0,0,1,.65,17c-.21.22-.43.44-.65.65Z"/></g></g></svg>