<svg xmlns="http://www.w3.org/2000/svg" data-name="Layer 1" viewBox="0 0 512 640" x="0px" y="0px"><title>Artboard 28</title><path d="M256,17A239,239,0,0,0,87,425,239,239,0,0,0,425,87,237.439,237.439,0,0,0,256,17ZM196.253,306.818l-16.31,17.607-61.859-57.306a12,12,0,0,1,0-17.607l61.859-57.306,16.31,17.606-52.356,48.5Zm43.661,73.436-23.4-5.347,55.569-243.161,23.4,5.347Zm154-113.135-61.859,57.306-16.31-17.607,52.356-48.5-52.356-48.5,16.31-17.606,61.859,57.306a12,12,0,0,1,0,17.607Z"/><text x="0" y="527" fill="#000000" font-size="5px" font-weight="bold" font-family="'Helvetica Neue', Helvetica, Arial-Unicode, Arial, Sans-serif">Created by Sonali</text><text x="0" y="532" fill="#000000" font-size="5px" font-weight="bold" font-family="'Helvetica Neue', Helvetica, Arial-Unicode, Arial, Sans-serif">from the Noun Project</text></svg>